<svg width="16" height="16" viewBox="0 0 16 16" fill="none" xmlns="http://www.w3.org/2000/svg">
<path d="M2.66659 5.33106C2.55725 5.32824 2.47785 5.32191 2.40646 5.30771C1.87754 5.2025 1.46408 4.78904 1.35887 4.26012C1.33325 4.13132 1.33325 3.97644 1.33325 3.66667C1.33325 3.3569 1.33325 3.20201 1.35887 3.07321C1.46408 2.54429 1.87754 2.13083 2.40646 2.02562C2.53526 2 2.69015 2 2.99992 2H12.9999C13.3097 2 13.4646 2 13.5934 2.02562C14.1223 2.13083 14.5358 2.54429 14.641 3.07321C14.6666 3.20201 14.6666 3.3569 14.6666 3.66667C14.6666 3.97644 14.6666 4.13132 14.641 4.26012C14.5358 4.78904 14.1223 5.2025 13.5934 5.30771C13.522 5.32191 13.4426 5.32824 13.3333 5.33106M6.66658 8.66667H9.33325M2.66659 5.33333H13.3333V10.8C13.3333 11.9201 13.3333 12.4802 13.1153 12.908C12.9235 13.2843 12.6176 13.5903 12.2412 13.782C11.8134 14 11.2534 14 10.1333 14H5.86659C4.74648 14 4.18643 14 3.7586 13.782C3.38228 13.5903 3.07632 13.2843 2.88457 12.908C2.66659 12.4802 2.66659 11.9201 2.66659 10.8V5.33333Z" stroke="#B1B9B9" stroke-width="1.5" stroke-linecap="round" stroke-linejoin="round"/>
</svg>
