<svg width="16" height="16" viewBox="0 0 16 16" fill="none" xmlns="http://www.w3.org/2000/svg">
    <g clip-path="url(#d0iwyfhafa)" stroke="#B1B9B9" stroke-width="1.5" stroke-linecap="round" stroke-linejoin="round">
        <path d="M1.333 8A6.667 6.667 0 0 0 8 14.666a2 2 0 0 0 2-2v-.333c0-.31 0-.464.017-.594a2 2 0 0 1 1.722-1.722c.13-.017.285-.017.595-.017h.333a2 2 0 0 0 2-2A6.667 6.667 0 1 0 1.333 8z"/>
        <path d="M4.667 8.666a.667.667 0 1 0 0-1.333.667.667 0 0 0 0 1.333zM10.667 6a.667.667 0 1 0 0-1.334.667.667 0 0 0 0 1.334zM6.667 5.333a.667.667 0 1 0 0-1.333.667.667 0 0 0 0 1.333z"/>
    </g>
    <defs>
        <clipPath id="d0iwyfhafa">
            <path fill="#fff" d="M0 0h16v16H0z"/>
        </clipPath>
    </defs>
</svg>
